<svg width="128" height="35" viewBox="0 0 128 35" fill="none" xmlns="http://www.w3.org/2000/svg">
<path id="Vector" d="M24.8551 15.302H14.1551C14.0225 15.302 13.8953 15.3547 13.8016 15.4485C13.7078 15.5422 13.6551 15.6694 13.6551 15.802V21.034C13.6551 21.1666 13.7078 21.2938 13.8016 21.3876C13.8953 21.4813 14.0225 21.534 14.1551 21.534H18.3281V28.034C18.3281 28.034 17.3911 28.354 14.7981 28.354C11.7421 28.354 7.47113 27.238 7.47113 17.846C7.47113 8.45302 11.9191 7.21602 16.0951 7.21602C19.7091 7.21602 21.2651 7.85201 22.2571 8.15901C22.5671 8.25301 22.8571 7.94302 22.8571 7.66702L24.0501 2.61201C24.0521 2.53633 24.0356 2.4613 24.0022 2.39337C23.9687 2.32544 23.9193 2.26664 23.8581 2.22202C23.4551 1.93402 21.0011 0.562012 14.8001 0.562012C7.65613 0.562012 0.328125 3.60001 0.328125 18.212C0.328125 32.822 8.71812 34.999 15.7881 34.999C21.6421 34.999 25.1931 32.497 25.1931 32.497C25.3391 32.417 25.3551 32.212 25.3551 32.117V15.801C25.3551 15.6684 25.3024 15.5412 25.2087 15.4475C25.1149 15.3537 24.9877 15.301 24.8551 15.301V15.302ZM79.5061 1.81001H73.4801C73.4144 1.81027 73.3493 1.82351 73.2887 1.84894C73.2281 1.87437 73.1731 1.91151 73.1268 1.95823C73.0805 2.00495 73.044 2.06034 73.0191 2.12122C72.9943 2.18209 72.9817 2.24727 72.9821 2.31302L72.9841 13.957H63.5921V2.31302C63.5925 2.24736 63.58 2.18226 63.5552 2.12144C63.5305 2.06063 63.494 2.00529 63.4478 1.95858C63.4017 1.91187 63.3468 1.87471 63.2862 1.84922C63.2257 1.82373 63.1608 1.81041 63.0951 1.81001H57.0701C57.0044 1.81027 56.9393 1.82351 56.8787 1.84894C56.8181 1.87437 56.7631 1.91151 56.7168 1.95823C56.6705 2.00495 56.634 2.06034 56.6091 2.12122C56.5843 2.18209 56.5717 2.24727 56.5721 2.31302V33.843C56.5721 34.12 56.7961 34.346 57.0701 34.346H63.0951C63.1609 34.3456 63.2259 34.3323 63.2865 34.3067C63.347 34.2812 63.402 34.2439 63.4482 34.1971C63.4943 34.1503 63.5308 34.0948 63.5555 34.0339C63.5802 33.973 63.5927 33.9078 63.5921 33.842V20.356H72.9841L72.9681 33.842C72.9681 34.12 73.1921 34.346 73.4681 34.346H79.5061C79.5719 34.3456 79.6369 34.3323 79.6975 34.3067C79.758 34.2812 79.813 34.2439 79.8592 34.1971C79.9053 34.1503 79.9418 34.0948 79.9665 34.0339C79.9912 33.973 80.0036 33.9078 80.0031 33.842V2.31201C80.0038 2.24633 79.9914 2.18116 79.9667 2.12029C79.9421 2.05941 79.9056 2.00403 79.8593 1.95734C79.8131 1.91066 79.7581 1.87361 79.6975 1.84832C79.6368 1.82303 79.5718 1.81001 79.5061 1.81001ZM32.3401 2.52702C30.1961 2.52702 28.4561 4.28001 28.4561 6.45001C28.4561 8.61701 30.1961 10.375 32.3401 10.375C34.4861 10.375 36.2251 8.61701 36.2251 6.45001C36.2251 4.28001 34.4851 2.52702 32.3401 2.52702ZM35.2961 12.135H29.2901C29.0141 12.135 28.7681 12.419 28.7681 12.695V33.547C28.7681 34.16 29.1501 34.342 29.6441 34.342H35.0541C35.6491 34.342 35.7941 34.05 35.7941 33.537V12.638C35.7944 12.5724 35.7817 12.5073 35.7568 12.4465C35.7319 12.3858 35.6953 12.3305 35.6491 12.2839C35.6028 12.2373 35.5479 12.2002 35.4873 12.1748C35.4268 12.1495 35.3618 12.1363 35.2961 12.136V12.135ZM102.902 12.182H96.9221C96.8565 12.1825 96.7915 12.196 96.7311 12.2216C96.6706 12.2472 96.6158 12.2845 96.5697 12.3313C96.5237 12.3781 96.4873 12.4335 96.4626 12.4944C96.438 12.5552 96.4256 12.6204 96.4261 12.686V28.146C96.4261 28.146 94.9061 29.256 92.7511 29.256C90.5961 29.256 90.0241 28.279 90.0241 26.168V12.686C90.0247 12.6203 90.0122 12.5551 89.9875 12.4941C89.9628 12.4332 89.9263 12.3777 89.8802 12.3309C89.834 12.2841 89.779 12.2469 89.7185 12.2213C89.6579 12.1958 89.5929 12.1824 89.5271 12.182H83.4591C83.3263 12.1831 83.1994 12.2367 83.106 12.3312C83.0127 12.4256 82.9606 12.5532 82.9611 12.686V27.188C82.9611 33.458 86.4561 34.992 91.2631 34.992C95.2071 34.992 98.3871 32.812 98.3871 32.812C98.3871 32.812 98.5371 33.962 98.6071 34.097C98.6771 34.233 98.8541 34.37 99.0471 34.37L102.907 34.353C102.973 34.3527 103.038 34.3395 103.099 34.314C103.16 34.2886 103.215 34.2514 103.262 34.2046C103.308 34.1578 103.345 34.1023 103.37 34.0413C103.395 33.9803 103.407 33.9149 103.407 33.849L103.404 12.683C103.404 12.5504 103.351 12.4233 103.257 12.3293C103.164 12.2354 103.037 12.1821 102.904 12.181L102.902 12.182ZM119.244 11.474C115.848 11.474 113.538 12.989 113.538 12.989V2.31201C113.539 2.24635 113.526 2.18126 113.501 2.12045C113.476 2.05963 113.44 2.00429 113.394 1.95758C113.348 1.91087 113.293 1.87371 113.232 1.84822C113.172 1.82273 113.107 1.80941 113.041 1.80901H107C106.934 1.80901 106.869 1.82204 106.808 1.84736C106.747 1.87267 106.692 1.90977 106.646 1.95652C106.599 2.00327 106.562 2.05874 106.537 2.11975C106.512 2.18076 106.5 2.2461 106.5 2.31201V33.842C106.5 33.9079 106.512 33.9733 106.537 34.0343C106.562 34.0953 106.599 34.1508 106.646 34.1975C106.692 34.2443 106.747 34.2814 106.808 34.3067C106.869 34.332 106.934 34.345 107 34.345H111.192C111.382 34.345 111.524 34.248 111.629 34.077C111.732 33.907 111.883 32.623 111.883 32.623C111.883 32.623 114.353 34.963 119.031 34.963C124.521 34.963 127.671 32.179 127.671 22.461C127.671 12.743 122.641 11.473 119.243 11.473L119.244 11.474ZM116.884 29.238C114.811 29.175 113.404 28.234 113.404 28.234V18.249C113.404 18.249 114.792 17.399 116.494 17.245C118.647 17.052 120.722 17.703 120.722 22.839C120.722 28.256 119.787 29.325 116.885 29.237L116.884 29.238ZM53.1951 29.12C52.9321 29.12 52.2581 29.227 51.5651 29.227C49.3451 29.227 48.5921 28.195 48.5921 26.859V17.993H53.1121C53.1781 17.993 53.2435 17.98 53.3044 17.9546C53.3653 17.9292 53.4206 17.892 53.4671 17.8452C53.5136 17.7983 53.5503 17.7427 53.5752 17.6816C53.6001 17.6205 53.6127 17.555 53.6121 17.489V12.633C53.6124 12.5672 53.5997 12.502 53.5746 12.4411C53.5496 12.3802 53.5128 12.3248 53.4664 12.2782C53.4199 12.2315 53.3647 12.1945 53.3039 12.1693C53.2431 12.144 53.178 12.131 53.1121 12.131H48.5921L48.5851 6.16102C48.5851 5.93402 48.4691 5.82101 48.2071 5.82101H42.0471C41.8091 5.82101 41.6801 5.92701 41.6801 6.15601V12.326C41.6801 12.326 38.5931 13.071 38.3851 13.131C38.2813 13.1613 38.19 13.2245 38.1251 13.311C38.0602 13.3976 38.0251 13.5028 38.0251 13.611V17.488C38.0247 17.5537 38.0373 17.6188 38.062 17.6796C38.0868 17.7404 38.1233 17.7957 38.1694 17.8425C38.2156 17.8892 38.2705 17.9263 38.331 17.9518C38.3915 17.9773 38.4565 17.9906 38.5221 17.991H41.6801V27.319C41.6801 34.249 46.5401 34.929 49.8201 34.929C51.3171 34.929 53.1101 34.449 53.4061 34.339C53.5861 34.272 53.6891 34.087 53.6891 33.886L53.6931 29.621C53.6911 29.4889 53.6378 29.3627 53.5445 29.269C53.4513 29.1754 53.3253 29.1216 53.1931 29.119L53.1951 29.12Z" fill="#100E0F"/>
</svg>
